<?xml version="1.0" encoding="UTF-8"?>
<svg width="718px" height="93px" viewBox="0 0 718 93" version="1.1" xmlns="http://www.w3.org/2000/svg" xmlns:xlink="http://www.w3.org/1999/xlink">
    <!-- Generator: Sketch 51.2 (57519) - http://www.bohemiancoding.com/sketch -->
    <title>Artboard</title>
    <desc>Created with Sketch.</desc>
    <defs>
        <linearGradient x1="50%" y1="0%" x2="50%" y2="100%" id="linearGradient-1">
            <stop stop-color="#FF6A00" offset="0%"></stop>
            <stop stop-color="#FF0089" offset="100%"></stop>
        </linearGradient>
    </defs>
    <g id="Artboard" stroke="none" stroke-width="1" fill="none" fill-rule="evenodd">
        <text id="CODE" font-family="ProximaNovaSoft-Bold" font-size="100" font-weight="bold" letter-spacing="20" fill="#4A4A4A">
            <tspan x="3" y="82">CODE</tspan>
        </text>
        <path d="M368,76.0093458 L368,23.6527678 C368,21.4366053 368.781841,19.5463773 370.345547,17.9820273 C371.909253,16.4176773 373.798703,15.635514 376.013953,15.635514 L409.731196,15.635514 C411.392634,15.635514 412.826009,16.2547266 414.031366,17.4931704 C415.236723,18.7316141 415.839392,20.2144654 415.839392,21.9417685 C415.839392,23.6690717 415.236723,25.1356278 414.031366,26.3414809 C412.826009,27.5473341 411.392634,28.1502516 409.731196,28.1502516 L382.219881,28.1502516 L382.219881,42.2782171 L409.047078,42.2782171 C410.708516,42.2782171 412.141892,42.8974297 413.347248,44.1358735 C414.552605,45.3743172 415.155274,46.8571685 415.155274,48.5844716 C415.155274,50.3117748 414.552605,51.7783309 413.347248,52.984184 C412.141892,54.1900372 410.708516,54.7929547 409.047078,54.7929547 L382.219881,54.7929547 L382.219881,76.0093458 C382.219881,77.9321927 381.519481,79.5779946 380.118661,80.9468009 C378.717841,82.3156071 377.023852,83 375.036642,83 C373.114587,83 371.461318,82.3156071 370.076787,80.9468009 C368.692255,79.5779946 368,77.9321927 368,76.0093458 Z M445.139188,74.3961179 L445.139188,22.0395399 C445.139188,20.116693 445.839587,18.4708911 447.240407,17.1020848 C448.641227,15.7332786 450.351505,15.0488857 452.371292,15.0488857 C454.293347,15.0488857 455.938472,15.7332786 457.306714,17.1020848 C458.674957,18.4708911 459.359068,20.116693 459.359068,22.0395399 L459.359068,69.8986341 L482.081558,69.8986341 C483.742996,69.8986341 485.176371,70.5015516 486.381728,71.7074047 C487.587085,72.9132579 488.189754,74.3472239 488.189754,76.0093458 C488.189754,77.8018302 487.587085,79.3172715 486.381728,80.5557153 C485.176371,81.7941591 483.742996,82.4133717 482.081558,82.4133717 L453.153141,82.4133717 C450.937891,82.4133717 449.048441,81.6312084 447.484735,80.0668584 C445.921029,78.5025084 445.139188,76.6122804 445.139188,74.3961179 Z M513.580304,75.4227175 C513.580304,74.3472268 513.759476,73.434703 514.117825,72.6851186 L533.615187,22.5283968 C534.494772,20.2470531 535.944436,18.4301529 537.964223,17.077642 C539.98401,15.725131 542.16665,15.0488857 544.512209,15.0488857 C544.837981,15.0162951 545.14746,15 545.440655,15 C547.623328,15 549.724526,15.6029175 551.744313,16.8087707 C554.024718,18.1775769 555.653554,20.0840999 556.63087,22.5283968 L576.030501,72.6851186 C576.356273,73.695428 576.519157,74.6079518 576.519157,75.4227175 C576.519157,77.2803831 575.84319,79.0076604 574.491236,80.604601 C573.139282,82.2015417 571.290553,83 568.944994,83 C567.413865,83 566.013066,82.5844758 564.742555,81.7534148 C563.472044,80.9223539 562.576184,79.7735515 562.054949,78.3069734 L559.416208,71.1207764 L530.82985,71.1207764 L528.093378,78.3069734 C527.572143,79.7735515 526.659994,80.9223539 525.356906,81.7534148 C524.053818,82.5844758 522.63673,83 521.105602,83 C518.825197,83 517.000901,82.2178367 515.632658,80.6534867 C514.264415,79.0891367 513.580304,77.3455644 513.580304,75.4227175 Z M534.69023,58.6060388 L555.506962,58.6060388 L545.098596,29.8612509 L534.69023,58.6060388 Z M605.916683,76.0093458 L605.916683,22.0395399 C605.916683,20.116693 606.617083,18.4708911 608.017903,17.1020848 C609.418723,15.7332786 611.129001,15.0488857 613.148788,15.0488857 C615.070843,15.0488857 616.715967,15.7332786 618.08421,17.1020848 C619.452453,18.4708911 620.136564,20.116693 620.136564,22.0395399 L620.136564,76.0093458 C620.136564,77.9321927 619.436165,79.5779946 618.035345,80.9468009 C616.634525,82.3156071 614.940535,83 612.953325,83 C611.03127,83 609.378002,82.3156071 607.99347,80.9468009 C606.608939,79.5779946 605.916683,77.9321927 605.916683,76.0093458 Z M653.345605,76.0093458 L653.345605,23.6527678 C653.345605,21.4366053 654.127446,19.5463773 655.691152,17.9820273 C657.254858,16.4176773 659.144308,15.635514 661.359558,15.635514 L684.570704,15.635514 C688.023888,15.635514 691.143109,16.1732513 693.92846,17.2487419 C696.713812,18.3242326 699.06748,19.8233788 700.989535,21.7462257 C702.91159,23.6690726 704.393831,25.9503822 705.436302,28.5902229 C706.478772,31.2300635 707,34.0817005 707,37.1452193 C707,40.0783756 706.584647,42.6855865 705.753928,44.9669303 C704.923209,47.248274 703.807456,49.2036822 702.406636,50.8332135 C701.005817,52.4627448 699.43399,53.7989404 697.691109,54.8418404 C695.948228,55.8847404 694.180941,56.6017234 692.389195,56.9928109 L701.575922,72.5873472 C702.162312,73.7280191 702.47179,74.8686739 702.504368,76.0093458 C702.504368,77.7366489 701.869122,79.3335656 700.59861,80.8001438 C699.328099,82.2667219 697.617821,83 695.467726,83 C694.197215,83 693.032597,82.6822462 691.973837,82.046729 C690.915078,81.4112118 690.043651,80.5394256 689.35953,79.4313444 L677.973852,58.7038102 L667.565486,58.7038102 L667.565486,76.0093458 C667.565486,77.9321927 666.865086,79.5779946 665.464266,80.9468009 C664.063446,82.3156071 662.369457,83 660.382247,83 C658.460192,83 656.806923,82.3156071 655.422392,80.9468009 C654.03786,79.5779946 653.345605,77.9321927 653.345605,76.0093458 Z M667.565486,46.1890726 L682.469484,46.1890726 C685.336279,46.1890726 687.722523,45.3824667 689.62829,43.7692308 C691.534057,42.1559948 692.486926,39.9480131 692.486926,37.1452193 C692.486926,34.3424255 691.534057,32.1425913 689.62829,30.5456506 C687.722523,28.94871 685.336279,28.1502516 682.469484,28.1502516 L667.565486,28.1502516 L667.565486,46.1890726 Z" id="FLAIR" fill="url(#linearGradient-1)"></path>
    </g>
</svg>